<?xml version="1.0" encoding="utf-8"?>
<!-- Generator: Adobe Illustrator 25.4.1, SVG Export Plug-In . SVG Version: 6.00 Build 0)  -->
<svg version="1.1" id="Calque_1" xmlns="http://www.w3.org/2000/svg" xmlns:xlink="http://www.w3.org/1999/xlink" x="0px" y="0px"
	 viewBox="0 0 119 59.5" style="enable-background:new 0 0 119 59.5;" xml:space="preserve">
<style type="text/css">
	.st0{fill:#0F0F0F;}
</style>
<path class="st0" d="M115.09,0.24c-2.32-0.7-4.83,0.2-6.17,2.21L95.5,22.58L82.08,2.45C81.06,0.92,79.34,0,77.5,0
	s-3.56,0.92-4.58,2.45L59.5,22.58L46.08,2.45C45.06,0.92,43.34,0,41.5,0h-36C2.46,0,0,2.46,0,5.5v54h11V38h21.5V27H11V11h27.56
	L54,34.17V59.5h11V34.17l12.5-18.75l13.42,20.14C91.94,37.08,93.66,38,95.5,38s3.56-0.92,4.58-2.45L108,23.67V59.5h11v-54
	C119,3.08,117.41,0.94,115.09,0.24z"/>
</svg>
